<svg width="265" height="48" viewBox="0 0 265 48" fill="none" xmlns="http://www.w3.org/2000/svg">
<path d="M65.7347 17.2498C67.3764 17.7698 68.6625 18.6454 69.5928 19.8769C70.5231 21.0809 70.9883 22.5723 70.9883 24.351C70.9883 26.8685 70.0032 28.8114 68.0331 30.1797C66.0904 31.5206 63.2447 32.191 59.496 32.191H44.6382V3.45801H58.6752C62.1776 3.45801 64.8591 4.12844 66.7197 5.46932C68.6077 6.81019 69.5518 8.62994 69.5518 10.9286C69.5518 12.3242 69.2097 13.5693 68.5257 14.6639C67.869 15.7585 66.9386 16.6204 65.7347 17.2498ZM51.2462 8.46576V15.2385H57.8543C59.496 15.2385 60.741 14.9512 61.5893 14.3765C62.4375 13.8019 62.8616 12.9536 62.8616 11.8316C62.8616 10.7097 62.4375 9.87504 61.5893 9.32774C60.741 8.75309 59.496 8.46576 57.8543 8.46576H51.2462ZM59.0035 27.1832C60.7547 27.1832 62.0681 26.8959 62.9437 26.3212C63.8467 25.7466 64.2981 24.8572 64.2981 23.6532C64.2981 21.2725 62.5333 20.0821 59.0035 20.0821H51.2462V27.1832H59.0035Z" fill="white"/>
<path d="M86.078 32.5194C83.7521 32.5194 81.6589 32.0405 79.7983 31.0827C77.965 30.0976 76.5284 28.743 75.4887 27.0191C74.4489 25.2951 73.929 23.3385 73.929 21.1493C73.929 18.9601 74.4489 17.0036 75.4887 15.2796C76.5284 13.5556 77.965 12.2147 79.7983 11.257C81.6589 10.2718 83.7521 9.77926 86.078 9.77926C88.4038 9.77926 90.4833 10.2718 92.3166 11.257C94.1499 12.2147 95.5864 13.5556 96.6262 15.2796C97.666 17.0036 98.1859 18.9601 98.1859 21.1493C98.1859 23.3385 97.666 25.2951 96.6262 27.0191C95.5864 28.743 94.1499 30.0976 92.3166 31.0827C90.4833 32.0405 88.4038 32.5194 86.078 32.5194ZM86.078 27.2653C87.7197 27.2653 89.0605 26.718 90.1002 25.6234C91.1674 24.5015 91.701 23.0101 91.701 21.1493C91.701 19.2885 91.1674 17.8108 90.1002 16.7162C89.0605 15.5943 87.7197 15.0333 86.078 15.0333C84.4362 15.0333 83.0818 15.5943 82.0146 16.7162C80.9475 17.8108 80.4139 19.2885 80.4139 21.1493C80.4139 23.0101 80.9475 24.5015 82.0146 25.6234C83.0818 26.718 84.4362 27.2653 86.078 27.2653Z" fill="white"/>
<path d="M112.973 32.5194C110.647 32.5194 108.554 32.0405 106.693 31.0827C104.86 30.0976 103.423 28.743 102.384 27.0191C101.344 25.2951 100.824 23.3385 100.824 21.1493C100.824 18.9601 101.344 17.0036 102.384 15.2796C103.423 13.5556 104.86 12.2147 106.693 11.257C108.554 10.2718 110.647 9.77926 112.973 9.77926C115.299 9.77926 117.378 10.2718 119.211 11.257C121.045 12.2147 122.481 13.5556 123.521 15.2796C124.561 17.0036 125.081 18.9601 125.081 21.1493C125.081 23.3385 124.561 25.2951 123.521 27.0191C122.481 28.743 121.045 30.0976 119.211 31.0827C117.378 32.0405 115.299 32.5194 112.973 32.5194ZM112.973 27.2653C114.615 27.2653 115.955 26.718 116.995 25.6234C118.062 24.5015 118.596 23.0101 118.596 21.1493C118.596 19.2885 118.062 17.8108 116.995 16.7162C115.955 15.5943 114.615 15.0333 112.973 15.0333C111.331 15.0333 109.977 15.5943 108.91 16.7162C107.842 17.8108 107.309 19.2885 107.309 21.1493C107.309 23.0101 107.842 24.5015 108.91 25.6234C109.977 26.718 111.331 27.2653 112.973 27.2653Z" fill="white"/>
<path d="M142.659 31.1238C142.029 31.589 141.25 31.9447 140.319 32.191C139.416 32.4099 138.472 32.5194 137.487 32.5194C134.833 32.5194 132.795 31.8489 131.372 30.5081C129.949 29.1672 129.237 27.1969 129.237 24.5973V10.6002H135.64H141.099V15.5259H135.64V24.5152C135.64 25.4456 135.873 26.1707 136.338 26.6907C136.803 27.1832 137.474 27.4295 138.349 27.4295C139.334 27.4295 140.21 27.1559 140.976 26.6086L142.659 31.1238Z" fill="white"/>
<path d="M156.265 32.5194C153.912 32.5194 151.791 32.0405 149.903 31.0827C148.043 30.0976 146.579 28.743 145.512 27.0191C144.472 25.2951 143.952 23.3385 143.952 21.1493C143.952 18.9601 144.472 17.0036 145.512 15.2796C146.579 13.5556 148.043 12.2147 149.903 11.257C151.791 10.2718 153.912 9.77926 156.265 9.77926C158.591 9.77926 160.616 10.2718 162.34 11.257C164.091 12.2147 165.363 13.5966 166.157 15.4027L161.19 18.0708C160.041 16.0458 158.386 15.0333 156.224 15.0333C154.555 15.0333 153.173 15.5806 152.079 16.6752C150.984 17.7698 150.437 19.2611 150.437 21.1493C150.437 23.0375 150.984 24.5289 152.079 25.6234C153.173 26.718 154.555 27.2653 156.224 27.2653C158.413 27.2653 160.068 26.2528 161.19 24.2278L166.157 26.937C165.363 28.6883 164.091 30.0565 162.34 31.0417C160.616 32.0268 158.591 32.5194 156.265 32.5194Z" fill="white"/>
<path d="M191.972 10.1076V32.191H185.857V29.6461C184.27 31.5616 181.971 32.5194 178.962 32.5194C176.882 32.5194 174.994 32.0542 173.298 31.1238C171.628 30.1934 170.315 28.8662 169.357 27.1422C168.4 25.4182 167.921 23.4206 167.921 21.1493C167.921 18.878 168.4 16.8804 169.357 15.1564C170.315 13.4325 171.628 12.1053 173.298 11.1749C174.994 10.2445 176.882 9.77926 178.962 9.77926C181.78 9.77926 183.983 10.6686 185.57 12.4473V10.1076H191.972ZM180.07 27.2653C181.684 27.2653 183.025 26.718 184.092 25.6234C185.159 24.5015 185.693 23.0101 185.693 21.1493C185.693 19.2885 185.159 17.8108 184.092 16.7162C183.025 15.5943 181.684 15.0333 180.07 15.0333C178.428 15.0333 177.074 15.5943 176.006 16.7162C174.939 17.8108 174.406 19.2885 174.406 21.1493C174.406 23.0101 174.939 24.5015 176.006 25.6234C177.074 26.718 178.428 27.2653 180.07 27.2653Z" fill="white"/>
<path d="M226.18 9.77926C228.943 9.77926 231.132 10.6002 232.747 12.2421C234.388 13.8566 235.209 16.2921 235.209 19.5485V32.191H228.806V20.5336C228.806 18.7823 228.437 17.4824 227.698 16.6341C226.987 15.7585 225.961 15.3206 224.62 15.3206C223.115 15.3206 221.925 15.8132 221.049 16.7983C220.173 17.7561 219.736 19.1927 219.736 21.1083V32.191H213.333V20.5336C213.333 17.0583 211.937 15.3206 209.146 15.3206C207.669 15.3206 206.492 15.8132 205.617 16.7983C204.741 17.7561 204.303 19.1927 204.303 21.1083V32.191H197.9V10.1076H204.016V12.6526C204.837 11.7222 205.836 11.0107 207.012 10.5181C208.216 10.0255 209.529 9.77926 210.952 9.77926C212.512 9.77926 213.921 10.094 215.18 10.7233C216.439 11.3254 217.451 12.2147 218.217 13.3914C219.12 12.2421 220.256 11.3527 221.624 10.7233C223.019 10.094 224.538 9.77926 226.18 9.77926Z" fill="white"/>
<path d="M254 9.77926C256.052 9.77926 257.913 10.2581 259.582 11.2159C261.279 12.1463 262.606 13.4735 263.563 15.1975C264.521 16.8941 265 18.878 265 21.1493C265 23.4206 264.521 25.4182 263.563 27.1422C262.606 28.8388 261.279 30.166 259.582 31.1238C257.913 32.0542 256.052 32.5194 254 32.5194C251.182 32.5194 248.965 31.63 247.351 29.8513V47.1533H240.948V10.1076H247.064V12.6526C248.651 10.737 250.963 9.77926 254 9.77926ZM252.892 27.2653C254.534 27.2653 255.875 26.718 256.914 25.6234C257.981 24.5015 258.515 23.0101 258.515 21.1493C258.515 19.2885 257.981 17.8108 256.914 16.7162C255.875 15.5943 254.534 15.0333 252.892 15.0333C251.25 15.0333 249.896 15.5943 248.829 16.7162C247.789 17.8108 247.269 19.2885 247.269 21.1493C247.269 23.0101 247.789 24.5015 248.829 25.6234C249.896 26.718 251.25 27.2653 252.892 27.2653Z" fill="white"/>
<path d="M131.805 4.33301H133.219V5.74662H131.805V4.33301Z" stroke="white" stroke-width="5"/>
<path d="M20.2705 17.6534C21.7849 16.3811 23.3162 16.5191 24.8643 18.0674L27.55 20.7533C28.3443 21.5476 29.0443 21.938 29.6501 21.9246C30.2693 21.9111 30.9895 21.4937 31.8107 20.6725L32.2549 20.2282L34.3954 22.3688L33.3454 23.4189C31.8107 24.9537 30.3938 25.7649 29.0948 25.8524C27.8024 25.9332 26.4764 25.2937 25.1168 23.9339L22.8451 21.662C22.0575 20.8744 21.3878 20.4537 20.8359 20.3999C20.2907 20.3393 19.6983 20.6287 19.0589 21.2682L16.3429 18.5521C16.9824 17.9126 17.2583 17.2035 17.1978 16.6583C17.1372 16.0995 16.7232 15.5397 15.929 14.7454L14.0006 12.8168C12.6746 11.4907 12.0587 10.1882 12.1529 8.90916C12.2471 7.63018 13.065 6.21992 14.6063 4.67841L15.6564 3.62829L17.7968 5.76891L17.3526 6.21319C16.5247 7.04117 16.1074 7.76144 16.1006 8.37401C16.0872 8.97984 16.4776 9.67992 17.2718 10.4742L19.7152 12.9178C20.4556 13.6582 20.846 14.3853 20.8863 15.0988C20.9267 15.8123 20.6205 16.5629 19.9676 17.3505L20.2705 17.6534Z" fill="white"/>
<path d="M19.8745 19.9567C21.1466 21.4713 21.0086 23.0027 19.4605 24.551L16.7748 27.2368C15.9806 28.0312 15.5902 28.7312 15.6037 29.3371C15.6171 29.9564 16.0344 30.6766 16.8556 31.4979L17.2999 31.9422L15.1594 34.0828L14.1094 33.0327C12.5747 31.4979 11.7636 30.0809 11.6761 28.7817C11.5954 27.4893 12.2348 26.1632 13.5945 24.8034L15.8662 22.5315C16.6537 21.7439 17.0744 21.0741 17.1282 20.5222C17.1888 19.9769 16.8994 19.3845 16.2599 18.745L18.9759 16.0289C19.6153 16.6684 20.2076 16.9578 20.7528 16.8972C21.3115 16.8366 21.988 16.4092 22.7822 15.6149L24.7107 13.6863C26.0367 12.3602 27.3391 11.7443 28.618 11.8385C29.8969 11.9327 31.307 12.7506 32.8484 14.2921L33.8984 15.3422L31.758 17.4829L31.3137 17.0386C30.4858 16.2106 29.7656 15.7933 29.1531 15.7865C28.5473 15.7731 27.8473 16.1635 27.053 16.9578L24.6097 19.4014C23.8693 20.1418 23.1423 20.5322 22.4289 20.5726C21.7154 20.613 20.9649 20.3067 20.1773 19.6538L19.8745 19.9567Z" fill="white"/>
<path d="M17.8866 19.8759C16.3721 21.1482 14.8408 21.0102 13.2927 19.4619L10.607 16.7761C9.81278 15.9817 9.11276 15.5913 8.50697 15.6048C7.88772 15.6182 7.16751 16.0356 6.34633 16.8568L5.90208 17.3011L3.76163 15.1605L4.81167 14.1104C6.34633 12.5756 7.7632 11.7644 9.06227 11.6769C10.3546 11.5962 11.6806 12.2357 13.0403 13.5954L15.312 15.8673C16.0995 16.6549 16.7692 17.0756 17.3212 17.1295C17.8664 17.1901 18.4587 16.9006 19.0981 16.2611L21.8141 18.9773C21.1747 19.6168 20.8852 20.2091 20.9458 20.7544C21.0064 21.3131 21.4338 21.9896 22.228 22.7839L24.1565 24.7125C25.4825 26.0386 26.0984 27.3412 26.0041 28.6202C25.9099 29.8992 25.0921 31.3094 23.5507 32.8509L22.5007 33.901L20.3602 31.7604L20.8044 31.3161C21.6324 30.4882 22.0497 29.7679 22.0564 29.1553C22.0699 28.5495 21.6795 27.8494 20.8852 27.0551L18.4419 24.6115C17.7015 23.8711 17.3111 23.1441 17.2707 22.4305C17.2303 21.717 17.5366 20.9664 18.1895 20.1788L17.8866 19.8759Z" fill="white"/>
<path d="M17.6521 17.5726C16.9689 15.7854 16.5179 14.5266 18.0661 12.9784L20.7517 10.2925C21.546 9.49817 21.9364 8.79809 21.9229 8.19226C21.9095 7.57296 21.4921 6.85269 20.671 6.03144L20.2267 5.58716L22.3672 3.44654L23.4172 4.49666C24.9518 6.03144 25.7629 7.44843 25.8504 8.74761C25.9312 10.0401 25.2918 11.3662 23.9321 12.7259L21.6604 14.9978C20.8729 15.7854 20.4522 16.4552 20.3983 17.0072C20.3378 17.5524 20.6272 18.1448 21.2666 18.7843L18.5507 21.5005C17.9113 20.861 17.3189 20.5715 16.7737 20.6321C16.215 20.6927 15.5386 21.1201 14.7443 21.9145L12.8159 23.843C11.4899 25.1691 10.1875 25.7851 8.90858 25.6908C7.6297 25.5966 6.21956 24.7787 4.67817 23.2372L3.62814 22.1871L5.76859 20.0465L6.21283 20.4907C7.04074 21.3187 7.76095 21.7361 8.37347 21.7428C8.97926 21.7563 9.67928 21.3658 10.4735 20.5715L12.9169 18.128C13.6573 17.3875 14.3842 16.9971 15.0977 16.9567C15.8112 16.9163 16.5617 17.2226 17.3492 17.8755L17.6521 17.5726Z" fill="white"/>
<path d="M161.645 46.4752V38.9236H158.585V37.7666H166.012V38.9236H162.951V46.4752H161.645Z" fill="white"/>
<path d="M168.859 46.5996C168.37 46.5996 167.939 46.4959 167.565 46.2886C167.192 46.0812 166.902 45.791 166.695 45.4177C166.487 45.0362 166.384 44.6008 166.384 44.1115V40.1428H167.615V43.9C167.615 44.3976 167.756 44.7915 168.038 45.0818C168.328 45.3721 168.714 45.5173 169.195 45.5173C169.535 45.5173 169.838 45.4468 170.103 45.3058C170.369 45.1565 170.584 44.9491 170.75 44.6837V40.1428H171.994V46.4752H170.75V45.8283C170.261 46.3425 169.63 46.5996 168.859 46.5996Z" fill="white"/>
<path d="M173.467 46.4752V40.1428H174.711V40.9515C174.91 40.6529 175.154 40.4207 175.445 40.2548C175.743 40.0806 176.079 39.9935 176.452 39.9935C176.709 40.0018 176.921 40.0392 177.087 40.1055V41.2252C176.97 41.1754 176.85 41.1422 176.726 41.1257C176.601 41.1008 176.477 41.0883 176.353 41.0883C175.988 41.0883 175.664 41.1879 175.382 41.3869C175.1 41.5777 174.876 41.8597 174.711 42.2329V46.4752H173.467Z" fill="white"/>
<path d="M178.083 46.4752V37.7666L179.327 37.5303V42.9171L182.4 40.1428H183.855L180.583 43.1037L184.029 46.4752H182.387L179.327 43.5019V46.4752H178.083Z" fill="white"/>
<path d="M184.607 46.4752V40.1428H185.851V40.7524C186.323 40.2631 186.916 40.0184 187.629 40.0184C188.061 40.0184 188.442 40.1138 188.774 40.3046C189.114 40.4953 189.383 40.7524 189.582 41.0759C189.848 40.7276 190.159 40.4663 190.515 40.2921C190.872 40.1097 191.274 40.0184 191.722 40.0184C192.195 40.0184 192.605 40.1221 192.954 40.3295C193.31 40.5368 193.588 40.8271 193.787 41.2003C193.994 41.5735 194.098 42.0048 194.098 42.4941V46.4752H192.854V42.7056C192.854 42.208 192.721 41.8182 192.456 41.5362C192.199 41.2459 191.846 41.1008 191.399 41.1008C191.092 41.1008 190.814 41.1713 190.565 41.3123C190.316 41.4533 190.101 41.6689 189.918 41.9592C189.935 42.0421 189.947 42.1292 189.956 42.2205C189.964 42.3117 189.968 42.4029 189.968 42.4941V46.4752H188.737V42.7056C188.737 42.208 188.604 41.8182 188.338 41.5362C188.081 41.2459 187.729 41.1008 187.281 41.1008C186.983 41.1008 186.713 41.1671 186.473 41.2998C186.232 41.4242 186.025 41.615 185.851 41.8721V46.4752H184.607Z" fill="white"/>
<path d="M198.563 46.5872C197.941 46.5872 197.377 46.442 196.871 46.1517C196.374 45.8615 195.976 45.4675 195.677 44.9699C195.387 44.4722 195.242 43.9165 195.242 43.3028C195.242 42.6973 195.383 42.15 195.665 41.6606C195.947 41.163 196.328 40.769 196.809 40.4787C197.29 40.1802 197.825 40.0309 198.414 40.0309C199.003 40.0309 199.525 40.1802 199.981 40.4787C200.437 40.769 200.798 41.1671 201.063 41.6731C201.337 42.1707 201.474 42.7347 201.474 43.365V43.7133H196.486C196.552 44.0617 196.681 44.3727 196.871 44.6464C197.07 44.9201 197.319 45.1357 197.618 45.2933C197.925 45.4509 198.256 45.5297 198.613 45.5297C198.92 45.5297 199.214 45.4841 199.496 45.3929C199.786 45.2933 200.027 45.1523 200.218 44.9699L201.014 45.7536C200.641 46.0356 200.255 46.2471 199.857 46.3881C199.467 46.5208 199.036 46.5872 198.563 46.5872ZM196.498 42.7803H200.242C200.193 42.4485 200.077 42.1582 199.894 41.9094C199.72 41.6523 199.5 41.4533 199.235 41.3123C198.978 41.163 198.696 41.0883 198.389 41.0883C198.074 41.0883 197.784 41.1588 197.518 41.2998C197.253 41.4408 197.029 41.6399 196.846 41.897C196.672 42.1458 196.556 42.4402 196.498 42.7803Z" fill="white"/>
<path d="M202.659 46.4752V40.1428H203.903V40.7898C204.392 40.2755 205.026 40.0184 205.806 40.0184C206.295 40.0184 206.722 40.1221 207.087 40.3295C207.461 40.5368 207.751 40.8271 207.958 41.2003C208.174 41.5735 208.282 42.0048 208.282 42.4941V46.4752H207.038V42.7056C207.038 42.208 206.897 41.8182 206.615 41.5362C206.341 41.2459 205.955 41.1008 205.458 41.1008C205.126 41.1008 204.827 41.1713 204.562 41.3123C204.297 41.4533 204.077 41.6565 203.903 41.9219V46.4752H202.659Z" fill="white"/>
<path d="M209.717 46.4752V40.1428H210.961V46.4752H209.717ZM210.339 39.1227C210.132 39.1227 209.953 39.048 209.804 38.8988C209.655 38.7412 209.58 38.5587 209.58 38.3514C209.58 38.1357 209.655 37.9574 209.804 37.8164C209.953 37.6671 210.132 37.5925 210.339 37.5925C210.555 37.5925 210.737 37.6671 210.886 37.8164C211.036 37.9574 211.11 38.1357 211.11 38.3514C211.11 38.5587 211.036 38.7412 210.886 38.8988C210.737 39.048 210.555 39.1227 210.339 39.1227Z" fill="white"/>
<path d="M214.603 46.5996C214.056 46.5996 213.541 46.5208 213.06 46.3632C212.588 46.1974 212.177 45.9651 211.829 45.6665L212.513 44.8455C212.836 45.1026 213.168 45.3016 213.508 45.4426C213.857 45.5753 214.209 45.6417 214.566 45.6417C215.013 45.6417 215.378 45.5546 215.66 45.3804C215.942 45.2062 216.083 44.9782 216.083 44.6962C216.083 44.4639 216 44.2815 215.834 44.1488C215.669 44.0161 215.411 43.9248 215.063 43.8751L213.919 43.7133C213.288 43.6221 212.816 43.4272 212.501 43.1286C212.185 42.83 212.028 42.4319 212.028 41.9343C212.028 41.5528 212.132 41.221 212.339 40.939C212.546 40.6488 212.836 40.4248 213.21 40.2672C213.583 40.1014 214.018 40.0184 214.516 40.0184C214.972 40.0184 215.411 40.0848 215.834 40.2175C216.257 40.3502 216.664 40.5575 217.054 40.8395L216.419 41.6606C216.071 41.4284 215.731 41.2584 215.399 41.1505C215.076 41.0427 214.748 40.9888 214.416 40.9888C214.035 40.9888 213.728 41.0718 213.496 41.2376C213.264 41.3952 213.147 41.6026 213.147 41.8597C213.147 42.0919 213.226 42.2744 213.384 42.4071C213.55 42.5315 213.819 42.6186 214.192 42.6683L215.337 42.83C215.967 42.9213 216.444 43.1162 216.767 43.4148C217.091 43.7051 217.253 44.099 217.253 44.5966C217.253 44.9782 217.136 45.3224 216.904 45.6292C216.672 45.9278 216.357 46.1642 215.959 46.3384C215.561 46.5125 215.109 46.5996 214.603 46.5996Z" fill="white"/>
<path d="M220.799 46.5872C220.185 46.5872 219.717 46.4462 219.393 46.1642C219.07 45.8739 218.908 45.4551 218.908 44.9077V41.1879H217.565V40.1428H218.908V38.5255L220.14 38.227V40.1428H222.006V41.1879H220.14V44.6215C220.14 44.945 220.21 45.1772 220.351 45.3182C220.5 45.4509 220.741 45.5173 221.073 45.5173C221.247 45.5173 221.4 45.5048 221.533 45.4799C221.674 45.4551 221.823 45.4177 221.981 45.368V46.413C221.815 46.4711 221.62 46.5125 221.396 46.5374C221.18 46.5706 220.981 46.5872 220.799 46.5872Z" fill="white"/>
<path d="M224.925 46.5872C224.469 46.5872 224.066 46.5084 223.718 46.3508C223.37 46.1849 223.096 45.9568 222.897 45.6665C222.698 45.3763 222.599 45.0404 222.599 44.6588C222.599 44.0617 222.827 43.5931 223.283 43.253C223.739 42.9047 224.365 42.7305 225.161 42.7305C225.783 42.7305 226.36 42.8508 226.89 43.0913V42.4195C226.89 41.9633 226.758 41.6233 226.492 41.3994C226.235 41.1754 225.854 41.0635 225.348 41.0635C225.058 41.0635 224.755 41.1091 224.44 41.2003C224.125 41.2832 223.772 41.4159 223.382 41.5984L222.922 40.6654C223.403 40.4414 223.851 40.2797 224.266 40.1802C224.68 40.0723 225.099 40.0184 225.522 40.0184C226.343 40.0184 226.977 40.2133 227.425 40.6031C227.881 40.993 228.109 41.5486 228.109 42.2702V46.4752H226.89V45.9278C226.608 46.1517 226.306 46.3176 225.982 46.4254C225.659 46.5333 225.306 46.5872 224.925 46.5872ZM223.793 44.634C223.793 44.9408 223.921 45.1897 224.178 45.3804C224.444 45.5629 224.788 45.6541 225.211 45.6541C225.543 45.6541 225.845 45.6085 226.119 45.5173C226.401 45.4177 226.658 45.2643 226.89 45.057V43.987C226.65 43.846 226.397 43.7465 226.131 43.6885C225.874 43.6221 225.584 43.5889 225.261 43.5889C224.805 43.5889 224.444 43.6843 224.178 43.8751C223.921 44.0575 223.793 44.3105 223.793 44.634Z" fill="white"/>
<path d="M229.543 46.4752V40.1428H230.787V40.7898C231.276 40.2755 231.91 40.0184 232.69 40.0184C233.179 40.0184 233.606 40.1221 233.971 40.3295C234.345 40.5368 234.635 40.8271 234.842 41.2003C235.058 41.5735 235.166 42.0048 235.166 42.4941V46.4752H233.922V42.7056C233.922 42.208 233.781 41.8182 233.499 41.5362C233.225 41.2459 232.839 41.1008 232.342 41.1008C232.01 41.1008 231.711 41.1713 231.446 41.3123C231.181 41.4533 230.961 41.6565 230.787 41.9219V46.4752H229.543Z" fill="white"/>
</svg>
