<svg width="200" height="86" viewBox="0 0 200 86" fill="none" xmlns="http://www.w3.org/2000/svg">
<path fill-rule="evenodd" clip-rule="evenodd" d="M43.4756 0.292253C44.5301 0.738683 47.8325 4.65364 49.222 7.10553C49.8056 8.13468 50.7785 10.7864 51.3846 12.9986C52.618 17.5032 53.5659 18.8388 57.6542 21.834C59.0142 22.8303 60.2443 23.8385 60.388 24.075C60.8783 24.8811 60.2293 26.2988 58.8244 27.492C57.1489 28.9152 57.0748 29.6514 58.4618 31.083C59.7769 32.4403 59.7873 33.8204 58.4914 34.9557C57.4985 35.8249 57.4948 35.8555 58.2832 36.6075C59.2203 37.5008 59.3527 39.6152 58.4939 39.9823C57.5393 40.3903 57.3516 41.5868 57.8811 43.888C59.04 48.923 57.402 50.0152 48.8053 49.9401L42.8908 49.8882L41.3389 51.4004C39.4568 53.2339 35.2282 59.4955 33.9153 62.3933C32.5749 65.3514 31.8613 69.2998 32.2056 71.8546C32.6161 74.9017 34.9543 79.8134 37.5186 83.0135L39.7224 85.763L36.6036 83.9434C32.6044 81.6098 28.0311 76.6786 26.2894 72.8221C24.1739 68.1385 23.5894 65.1818 23.7726 60.0981C23.9199 56.0093 24.0789 55.2708 25.4781 52.1648C26.5067 49.8817 28.2842 47.1943 30.8107 44.1041C37.0387 36.486 39.563 32.7412 41.45 28.3209C45.1657 19.6158 45.7881 10.9305 43.2871 2.68017C42.8525 1.24584 42.5294 0.0423813 42.5698 0.00622182C42.6102 -0.0304012 43.0177 0.0984751 43.4756 0.292253Z" fill="white"/>
<ellipse cx="6.74837" cy="6.55134" rx="6.74837" ry="6.55134" transform="matrix(-1 0 0 1 35.5786 16.3809)" fill="white"/>
<path d="M15.3333 3.66099C13.9986 3.66099 12.6939 4.04522 11.5841 4.76509C10.4744 5.48496 9.60942 6.50814 9.09865 7.70524C8.58788 8.90234 8.45424 10.2196 8.71463 11.4904C8.97502 12.7613 9.61774 13.9286 10.5615 14.8448C11.5053 15.7611 12.7077 16.385 14.0168 16.6378C15.3258 16.8906 16.6827 16.7608 17.9158 16.265C19.1489 15.7691 20.2029 14.9294 20.9444 13.8521C21.6859 12.7747 22.0817 11.5081 22.0817 10.2123L18.2132 10.2123C18.2132 10.7653 18.0443 11.3058 17.7279 11.7656C17.4114 12.2254 16.9616 12.5837 16.4354 12.7953C15.9092 13.0069 15.3301 13.0623 14.7715 12.9544C14.2129 12.8465 13.6997 12.5803 13.297 12.1893C12.8942 11.7983 12.6199 11.3001 12.5088 10.7578C12.3977 10.2154 12.4547 9.65329 12.6727 9.14243C12.8906 8.63157 13.2598 8.19492 13.7334 7.88772C14.207 7.58051 14.7638 7.41654 15.3333 7.41654L15.3333 3.66099Z" fill="white"/>
<path d="M19.0147 40.2041C19.864 40.2041 20.6943 39.9596 21.4005 39.5015C22.1067 39.0434 22.6572 38.3923 22.9822 37.6305C23.3072 36.8687 23.3923 36.0304 23.2266 35.2217C23.0609 34.413 22.6519 33.6702 22.0513 33.0871C21.4507 32.5041 20.6855 32.107 19.8525 31.9461C19.0194 31.7853 18.156 31.8678 17.3713 32.1834C16.5866 32.4989 15.9159 33.0333 15.444 33.7189C14.9721 34.4045 14.7202 35.2105 14.7202 36.0351L19.0147 36.0351L19.0147 40.2041Z" fill="white"/>
<ellipse cx="3.68093" cy="3.57346" rx="3.68093" ry="3.57346" transform="matrix(-1 0 0 1 7.36182 13.998)" fill="white"/>
<rect width="12.2698" height="11.9115" transform="matrix(-1 0 0 1 38.0332 0.895508)" fill="white"/>
<rect width="7.36186" height="7.14692" transform="matrix(-1 0 0 1 17.1748 21.1455)" fill="white"/>
<path d="M83.184 28.7878H91.2332V32.1075H79.2793V7.02906H83.184V28.7878Z" fill="white"/>
<path d="M93.197 22.0762C93.197 20.0795 93.5852 18.3114 94.3616 16.7718C95.1608 15.2322 96.234 14.0414 97.5813 13.1995C98.9513 12.3334 100.458 11.9004 102.103 11.9004C103.587 11.9004 104.877 12.2132 105.973 12.8386C107.092 13.44 107.982 14.1978 108.645 15.1119V12.2252H112.584V32.1075H108.645V29.1486C107.982 30.0868 107.08 30.8687 105.939 31.4941C104.797 32.1196 103.495 32.4323 102.034 32.4323C100.413 32.4323 98.9285 31.9993 97.5813 31.1333C96.234 30.2432 95.1608 29.0163 94.3616 27.4527C93.5852 25.865 93.197 24.0728 93.197 22.0762ZM108.645 22.1483C108.645 20.7771 108.371 19.5863 107.823 18.576C107.297 17.5656 106.601 16.7958 105.733 16.2666C104.865 15.7374 103.929 15.4728 102.925 15.4728C101.92 15.4728 100.984 15.7374 100.116 16.2666C99.2482 16.7718 98.5403 17.5296 97.9923 18.5399C97.4671 19.5262 97.2045 20.705 97.2045 22.0762C97.2045 23.4474 97.4671 24.6502 97.9923 25.6846C98.5403 26.719 99.2482 27.5128 100.116 28.0661C101.006 28.5954 101.943 28.86 102.925 28.86C103.929 28.86 104.865 28.5954 105.733 28.0661C106.601 27.5369 107.297 26.7671 107.823 25.7567C108.371 24.7223 108.645 23.5195 108.645 22.1483Z" fill="white"/>
<path d="M134.804 12.2252V32.1075H130.899V29.7621C130.283 30.58 129.472 31.2295 128.467 31.7106C127.485 32.1677 126.435 32.3962 125.316 32.3962C123.832 32.3962 122.496 32.0715 121.309 31.4219C120.144 30.7724 119.219 29.8102 118.534 28.5352C117.872 27.2602 117.541 25.7207 117.541 23.9164V12.2252H121.411V23.303C121.411 25.0832 121.834 26.4544 122.679 27.4166C123.524 28.3548 124.677 28.8239 126.138 28.8239C127.6 28.8239 128.753 28.3548 129.598 27.4166C130.465 26.4544 130.899 25.0832 130.899 23.303V12.2252H134.804Z" fill="white"/>
<path d="M149.478 11.9004C150.962 11.9004 152.286 12.2252 153.451 12.8747C154.638 13.5242 155.563 14.4865 156.225 15.7614C156.888 17.0364 157.219 18.576 157.219 20.3802V32.1075H153.348V20.9936C153.348 19.2135 152.926 17.8543 152.081 16.9161C151.236 15.9539 150.083 15.4728 148.622 15.4728C147.16 15.4728 145.996 15.9539 145.128 16.9161C144.283 17.8543 143.861 19.2135 143.861 20.9936V32.1075H139.956V12.2252H143.861V14.4985C144.5 13.6806 145.311 13.0431 146.292 12.586C147.297 12.129 148.359 11.9004 149.478 11.9004Z" fill="white"/>
<path d="M160.898 22.1483C160.898 20.1036 161.286 18.3114 162.062 16.7718C162.862 15.2081 163.958 14.0053 165.351 13.1634C166.743 12.3214 168.342 11.9004 170.146 11.9004C172.429 11.9004 174.313 12.4778 175.797 13.6325C177.304 14.7631 178.321 16.3869 178.846 18.5038H174.633C174.29 17.5175 173.742 16.7477 172.989 16.1944C172.235 15.6411 171.288 15.3645 170.146 15.3645C168.547 15.3645 167.269 15.9659 166.31 17.1687C165.373 18.3475 164.905 20.0073 164.905 22.1483C164.905 24.2893 165.373 25.9612 166.31 27.164C167.269 28.3668 168.547 28.9682 170.146 28.9682C172.406 28.9682 173.902 27.9218 174.633 25.8289H178.846C178.298 27.8496 177.27 29.4614 175.763 30.6642C174.256 31.8429 172.384 32.4323 170.146 32.4323C168.342 32.4323 166.743 32.0113 165.351 31.1694C163.958 30.3033 162.862 29.1005 162.062 27.5609C161.286 25.9973 160.898 24.1931 160.898 22.1483Z" fill="white"/>
<path d="M192.499 11.9004C193.937 11.9004 195.216 12.2252 196.335 12.8747C197.477 13.5242 198.367 14.4865 199.007 15.7614C199.669 17.0364 200 18.576 200 20.3802V32.1075H196.13V20.9936C196.13 19.2135 195.707 17.8543 194.862 16.9161C194.017 15.9539 192.864 15.4728 191.403 15.4728C189.941 15.4728 188.777 15.9539 187.909 16.9161C187.064 17.8543 186.642 19.2135 186.642 20.9936V32.1075H182.737V5.40527H186.642V14.5346C187.304 13.6926 188.138 13.0431 189.142 12.586C190.17 12.129 191.289 11.9004 192.499 11.9004Z" fill="white"/>
<path d="M83.1347 68.5778H91.0823V71.7615H79.2793V47.7105H83.1347V68.5778Z" fill="white"/>
<path d="M96.268 50.1675C95.5691 50.1675 94.9829 49.9253 94.5094 49.4408C94.0359 48.9563 93.7992 48.3565 93.7992 47.6413C93.7992 46.9261 94.0359 46.3263 94.5094 45.8418C94.9829 45.3573 95.5691 45.1151 96.268 45.1151C96.9444 45.1151 97.5193 45.3573 97.9928 45.8418C98.4662 46.3263 98.703 46.9261 98.703 47.6413C98.703 48.3565 98.4662 48.9563 97.9928 49.4408C97.5193 49.9253 96.9444 50.1675 96.268 50.1675ZM98.1619 52.6938V71.7615H94.3065V52.6938H98.1619Z" fill="white"/>
<path d="M111.036 55.9121H107.586V71.7615H103.697V55.9121H101.499V52.6938H103.697V51.3441C103.697 49.1524 104.261 47.5606 105.388 46.5685C106.538 45.5534 108.33 45.0459 110.765 45.0459V48.3334C109.593 48.3334 108.77 48.5641 108.297 49.0256C107.823 49.4639 107.586 50.2367 107.586 51.3441V52.6938H111.036V55.9121Z" fill="white"/>
<path d="M131.532 61.7604C131.532 62.4756 131.486 63.1216 131.396 63.6984H117.158C117.271 65.221 117.823 66.4437 118.815 67.3666C119.808 68.2894 121.025 68.7508 122.468 68.7508C124.542 68.7508 126.008 67.8626 126.864 66.0861H131.024C130.461 67.8395 129.435 69.2814 127.947 70.4119C126.481 71.5192 124.655 72.0729 122.468 72.0729C120.687 72.0729 119.086 71.6692 117.666 70.8617C116.268 70.0312 115.163 68.8777 114.351 67.4012C113.562 65.9016 113.168 64.1713 113.168 62.2103C113.168 60.2493 113.551 58.5306 114.317 57.0541C115.107 55.5545 116.2 54.401 117.598 53.5935C119.018 52.786 120.642 52.3823 122.468 52.3823C124.227 52.3823 125.794 52.7745 127.169 53.5589C128.544 54.3433 129.615 55.4507 130.382 56.881C131.148 58.2883 131.532 59.9148 131.532 61.7604ZM127.507 60.5146C127.485 59.0612 126.977 57.8961 125.985 57.0195C124.993 56.1428 123.764 55.7044 122.299 55.7044C120.969 55.7044 119.83 56.1428 118.883 57.0195C117.936 57.8731 117.373 59.0381 117.192 60.5146H127.507Z" fill="white"/>
</svg>
