<svg width="182" height="60" viewBox="0 0 182 60" fill="none" xmlns="http://www.w3.org/2000/svg">
<path d="M37.0703 22.855H22.9282V36.9971H37.0703V22.855Z" fill="#7C5CFC"/>
<path opacity="0.4" d="M17.6251 47.6036C20.5419 47.6036 22.9283 45.2172 22.9283 42.3004V36.9971H17.6251C14.7083 36.9971 12.3218 39.3835 12.3218 42.3004C12.3218 45.2172 14.7083 47.6036 17.6251 47.6036Z" fill="#7C5CFC"/>
<path opacity="0.4" d="M17.6251 22.8551H22.9283V17.5518C22.9283 14.635 20.5419 12.2485 17.6251 12.2485C14.7083 12.2485 12.3218 14.635 12.3218 17.5518C12.3218 20.4686 14.7083 22.8551 17.6251 22.8551Z" fill="#7C5CFC"/>
<path opacity="0.4" d="M37.0703 22.8551H42.3736C45.2904 22.8551 47.6769 20.4686 47.6769 17.5518C47.6769 14.635 45.2904 12.2485 42.3736 12.2485C39.4568 12.2485 37.0703 14.635 37.0703 17.5518V22.8551Z" fill="#7C5CFC"/>
<path opacity="0.4" d="M42.3736 47.6036C45.2904 47.6036 47.6769 45.2172 47.6769 42.3004C47.6769 39.3835 45.2904 36.9971 42.3736 36.9971H37.0703V42.3004C37.0703 45.2172 39.4568 47.6036 42.3736 47.6036Z" fill="#7C5CFC"/>
<path d="M40 30L30 20L20 30L30 39.9999L40 30Z" fill="#7C5CFC"/>
<path opacity="0.4" d="M8.75001 33.75C10.8125 35.8125 14.1875 35.8125 16.25 33.75L20 30L16.25 26.25C14.1875 24.1875 10.8125 24.1875 8.75001 26.25C6.68752 28.3125 6.68752 31.6875 8.75001 33.75Z" fill="#7C5CFC"/>
<path opacity="0.4" d="M26.25 16.25L30 19.9999L33.75 16.25C35.8125 14.1875 35.8125 10.8125 33.75 8.74999C31.6875 6.68749 28.3125 6.68749 26.25 8.74999C24.1875 10.8125 24.1875 14.1875 26.25 16.25Z" fill="#7C5CFC"/>
<path opacity="0.4" d="M40 30L43.75 33.75C45.8125 35.8125 49.1875 35.8125 51.25 33.75C53.3125 31.6875 53.3125 28.3125 51.25 26.25C49.1875 24.1875 45.8125 24.1875 43.75 26.25L40 30Z" fill="#7C5CFC"/>
<path opacity="0.4" d="M26.25 51.25C28.3125 53.3124 31.6875 53.3124 33.75 51.25C35.8125 49.1875 35.8125 45.8125 33.75 43.75L30 40L26.25 43.75C24.1875 45.8125 24.1875 49.1875 26.25 51.25Z" fill="#7C5CFC"/>
<path d="M69.0008 38.1428C67.9787 38.1428 67.0502 37.9678 66.2153 37.6178C65.3804 37.2678 64.6626 36.7733 64.0618 36.1341C63.4688 35.4874 63.024 34.7265 62.7275 33.8515L65.4779 32.8585C65.8291 33.589 66.3167 34.1901 66.9409 34.6618C67.5729 35.1259 68.283 35.358 69.071 35.358C69.9059 35.358 70.5691 35.1868 71.0607 34.8444C71.56 34.502 71.8097 34.0036 71.8097 33.3493C71.8097 32.9004 71.6615 32.5275 71.365 32.2308C71.0763 31.9264 70.6823 31.6677 70.1829 31.4547C69.6913 31.234 69.1334 31.021 68.5092 30.8155C67.9084 30.6177 67.3037 30.397 66.6951 30.1536C66.0865 29.9101 65.5287 29.6133 65.0215 29.2633C64.5143 28.9057 64.1047 28.4568 63.7926 27.9166C63.4883 27.3763 63.3361 26.7144 63.3361 25.9307C63.3361 25.147 63.5507 24.4279 63.9799 23.7736C64.409 23.1192 65.0293 22.598 65.8408 22.2099C66.66 21.8143 67.651 21.6164 68.8135 21.6164C69.7655 21.6164 70.6081 21.7762 71.3416 22.0958C72.0828 22.4078 72.6953 22.8339 73.1791 23.3741C73.6628 23.9143 73.9983 24.5268 74.1856 25.2116L71.4703 26.0904C71.2518 25.6111 70.9163 25.2116 70.4638 24.8921C70.019 24.5649 69.4143 24.4013 68.6497 24.4013C67.9319 24.4013 67.374 24.5382 66.976 24.8122C66.5781 25.0861 66.3791 25.4741 66.3791 25.9763C66.3791 26.3187 66.5118 26.6117 66.7771 26.8551C67.0502 27.091 67.413 27.3041 67.8655 27.4943C68.3259 27.6845 68.8448 27.8785 69.4221 28.0764C70.0698 28.2894 70.7135 28.5329 71.3533 28.8068C72.0009 29.0731 72.5861 29.4003 73.1089 29.7883C73.6394 30.1764 74.0647 30.6596 74.3846 31.2378C74.7045 31.8085 74.8644 32.5085 74.8644 33.3379C74.8644 34.3574 74.603 35.2249 74.0803 35.9401C73.5653 36.6553 72.867 37.2032 71.9853 37.5836C71.1036 37.9564 70.1088 38.1428 69.0008 38.1428Z" fill="#E1E1E1"/>
<path d="M81.4369 38.1428C80.1338 38.1428 79.1 37.8004 78.3354 37.1157C77.5785 36.4232 77.2001 35.4874 77.2001 34.308C77.2001 33.5471 77.3951 32.8813 77.7853 32.3107C78.1832 31.7324 78.7333 31.2873 79.4355 30.9753C80.1455 30.6557 80.9726 30.496 81.9167 30.496C82.4395 30.496 82.9428 30.5454 83.4265 30.6443C83.9181 30.7356 84.3472 30.8688 84.714 31.0438V30.3134C84.714 29.659 84.5228 29.1682 84.1405 28.841C83.7659 28.5063 83.212 28.3389 82.4785 28.3389C81.8933 28.3389 81.2925 28.4416 80.6761 28.647C80.0597 28.8525 79.4355 29.1568 78.8035 29.5601L77.9257 27.3117C78.6123 26.8704 79.377 26.5318 80.2197 26.2959C81.0624 26.0524 81.9128 25.9307 82.7711 25.9307C84.3784 25.9307 85.58 26.3035 86.3759 27.0492C87.1718 27.7872 87.5697 28.8905 87.5697 30.359V37.8689H84.714V36.933C84.3082 37.3287 83.8245 37.6292 83.2627 37.8347C82.7087 38.0401 82.1001 38.1428 81.4369 38.1428ZM82.1157 35.7346C82.5995 35.7346 83.0637 35.6433 83.5085 35.4607C83.961 35.2705 84.3628 35.0042 84.714 34.6618V33.2808C84.3784 33.121 84.0039 32.9993 83.5904 32.9156C83.1847 32.8243 82.7789 32.7786 82.3732 32.7786C81.6475 32.7786 81.0741 32.9156 80.6527 33.1895C80.2392 33.4558 80.0324 33.8286 80.0324 34.308C80.0324 34.7569 80.2158 35.1069 80.5825 35.358C80.9492 35.6091 81.4603 35.7346 82.1157 35.7346Z" fill="#E1E1E1"/>
<path d="M91.0691 37.8689V26.2046H93.9951V27.3231C94.3774 26.8589 94.8339 26.5127 95.3645 26.2845C95.9028 26.0486 96.5153 25.9307 97.202 25.9307C98.5362 25.9307 99.5661 26.3339 100.292 27.1405C101.017 27.9394 101.38 29.0921 101.38 30.5987V37.8689H98.466V31.4775C98.466 30.496 98.2904 29.7807 97.9393 29.3318C97.596 28.8753 97.0576 28.647 96.3242 28.647C95.5283 28.647 94.9392 28.8753 94.5569 29.3318C94.1824 29.7807 93.9951 30.4807 93.9951 31.4319V37.8689H91.0691Z" fill="#E1E1E1"/>
<path d="M105.039 37.8689V22.6779L107.965 21.3882V37.8689H105.039Z" fill="#E1E1E1"/>
<path d="M113.232 42.2973L115.046 37.6635L110.563 26.2046H113.571L116.181 33.0297C116.251 33.1895 116.318 33.3645 116.38 33.5547C116.443 33.7449 116.501 33.9352 116.556 34.1254C116.603 33.9352 116.657 33.7487 116.72 33.5661C116.79 33.3759 116.86 33.1971 116.93 33.0297L119.54 26.2046H122.548L116.251 42.2973H113.232Z" fill="#E1E1E1"/>
<path d="M128.745 37.8689V21.8904H135.814C137.148 21.8904 138.202 22.0996 138.974 22.5181C139.747 22.929 140.297 23.4654 140.624 24.1274C140.952 24.7817 141.116 25.4665 141.116 26.1818C141.116 26.897 140.956 27.5513 140.636 28.1448C140.316 28.7307 139.793 29.1834 139.068 29.503C139.661 29.7084 140.148 30.0052 140.531 30.3932C140.921 30.7737 141.206 31.2074 141.385 31.6944C141.572 32.1737 141.666 32.6607 141.666 33.1553C141.666 33.7183 141.568 34.2814 141.373 34.8444C141.186 35.3999 140.878 35.9058 140.449 36.3624C140.02 36.8189 139.45 37.1841 138.74 37.4581C138.038 37.732 137.172 37.8689 136.142 37.8689H128.745ZM131.776 35.0955H136.341C136.926 35.0955 137.382 34.9966 137.71 34.7988C138.046 34.6009 138.28 34.3536 138.412 34.0569C138.553 33.7525 138.623 33.452 138.623 33.1553C138.623 32.79 138.541 32.4438 138.377 32.1166C138.221 31.7819 137.929 31.5079 137.499 31.2949C137.078 31.0818 136.466 30.9753 135.662 30.9753H131.776V35.0955ZM131.776 28.316H135.44C136.329 28.316 136.984 28.1486 137.406 27.8138C137.835 27.4715 138.05 27.0187 138.05 26.4557C138.05 26.1665 137.995 25.885 137.886 25.6111C137.776 25.3296 137.566 25.0975 137.254 24.9149C136.942 24.7323 136.481 24.641 135.873 24.641H131.776V28.316Z" fill="#E1E1E1"/>
<path d="M144.813 37.8689V26.2046H147.739V37.8689H144.813ZM146.276 24.7437C145.808 24.7437 145.402 24.5801 145.058 24.2529C144.723 23.9181 144.555 23.5225 144.555 23.0659C144.555 22.6094 144.723 22.2214 145.058 21.9018C145.394 21.5746 145.8 21.411 146.276 21.411C146.767 21.411 147.177 21.5708 147.505 21.8904C147.832 22.2099 147.996 22.6018 147.996 23.0659C147.996 23.5301 147.828 23.9257 147.493 24.2529C147.165 24.5801 146.759 24.7437 146.276 24.7437Z" fill="#E1E1E1"/>
<path d="M151.535 37.8689V22.6779L154.461 21.3882V37.8689H151.535Z" fill="#E1E1E1"/>
<path d="M158.254 37.8689V26.2046H161.18V37.8689H158.254ZM159.717 24.7437C159.249 24.7437 158.843 24.5801 158.5 24.2529C158.164 23.9181 157.996 23.5225 157.996 23.0659C157.996 22.6094 158.164 22.2214 158.5 21.9018C158.835 21.5746 159.241 21.411 159.717 21.411C160.208 21.411 160.618 21.5708 160.946 21.8904C161.273 22.2099 161.437 22.6018 161.437 23.0659C161.437 23.5301 161.27 23.9257 160.934 24.2529C160.606 24.5801 160.201 24.7437 159.717 24.7437Z" fill="#E1E1E1"/>
<path d="M164.86 37.8689V26.2046H167.786V27.2888C168.168 26.8171 168.597 26.4747 169.073 26.2616C169.557 26.041 170.103 25.9307 170.711 25.9307C171.422 25.9307 172.03 26.0714 172.537 26.353C173.044 26.6345 173.438 27.0454 173.719 27.5856C174.117 27.053 174.628 26.6459 175.253 26.3644C175.877 26.0752 176.583 25.9307 177.371 25.9307C178.838 25.9307 179.946 26.3149 180.695 27.0834C181.444 27.8519 181.818 28.9932 181.818 30.5074V37.8689H178.904V31.4889C178.904 30.515 178.74 29.7998 178.413 29.3432C178.085 28.8791 177.578 28.647 176.891 28.647C176.423 28.647 176.033 28.7497 175.721 28.9552C175.416 29.1606 175.186 29.4726 175.03 29.8911C174.874 30.3019 174.796 30.8231 174.796 31.4547V37.8689H171.882V31.4889C171.882 30.5074 171.722 29.7883 171.402 29.3318C171.082 28.8753 170.575 28.647 169.881 28.647C169.17 28.647 168.644 28.8715 168.3 29.3204C167.957 29.7693 167.786 30.4655 167.786 31.409V37.8689H164.86Z" fill="#E1E1E1"/>
</svg>
