<svg width="31" height="31" viewBox="0 0 31 31" fill="none" xmlns="http://www.w3.org/2000/svg">
<rect x="11.2539" y="11.2578" width="8.48528" height="8.48528" fill="#513AB1"/>
<path d="M4.89062 8.07554C4.89062 6.31818 6.31525 4.89355 8.07261 4.89355C9.82997 4.89355 11.2546 6.31818 11.2546 8.07554V11.2575H8.0726C6.31524 11.2575 4.89062 9.83289 4.89062 8.07554Z" fill="#513AB1"/>
<path d="M26.1045 8.07554C26.1045 6.31818 24.6799 4.89355 22.9225 4.89355C21.1652 4.89355 19.7405 6.31818 19.7405 8.07554V11.2575H22.9225C24.6799 11.2575 26.1045 9.83289 26.1045 8.07554Z" fill="#513AB1"/>
<path d="M26.1045 22.9245C26.1045 24.6818 24.6799 26.1064 22.9225 26.1064C21.1652 26.1064 19.7405 24.6818 19.7405 22.9245V19.7425H22.9225C24.6799 19.7425 26.1045 21.1671 26.1045 22.9245Z" fill="#513AB1"/>
<path d="M4.89062 22.9245C4.89062 24.6818 6.31525 26.1064 8.07261 26.1064C9.82997 26.1064 11.2546 24.6818 11.2546 22.9245V19.7425H8.0726C6.31524 19.7425 4.89062 21.1671 4.89062 22.9245Z" fill="#513AB1"/>
<rect x="15.5" y="9.5" width="8.48528" height="8.48528" transform="rotate(45 15.5 9.5)" fill="#513AB1"/>
<path d="M13.25 2.75C14.4926 1.50736 16.5074 1.50736 17.75 2.75C18.9926 3.99264 18.9926 6.00736 17.75 7.25L15.5 9.5L13.25 7.25C12.0074 6.00736 12.0074 3.99264 13.25 2.75Z" fill="#513AB1"/>
<path d="M28.25 17.75C29.4926 16.5074 29.4926 14.4926 28.25 13.25C27.0074 12.0074 24.9926 12.0074 23.75 13.25L21.5 15.5L23.75 17.75C24.9926 18.9926 27.0074 18.9926 28.25 17.75Z" fill="#513AB1"/>
<path d="M17.75 28.25C16.5074 29.4926 14.4926 29.4926 13.25 28.25C12.0074 27.0074 12.0074 24.9926 13.25 23.75L15.5 21.5L17.75 23.75C18.9926 24.9926 18.9926 27.0074 17.75 28.25Z" fill="#513AB1"/>
<path d="M2.75 13.25C1.50736 14.4926 1.50736 16.5074 2.75 17.75C3.99264 18.9926 6.00736 18.9926 7.25 17.75L9.5 15.5L7.25 13.25C6.00736 12.0074 3.99264 12.0074 2.75 13.25Z" fill="#513AB1"/>
</svg>
