<svg width="215" height="72" viewBox="0 0 215 72" fill="none" xmlns="http://www.w3.org/2000/svg">
<path d="M27.6279 25.1163C25.9721 23.4604 24.8444 21.3508 24.3876 19.0541C23.9307 16.7573 24.1652 14.3767 25.0613 12.2133C25.9575 10.0498 27.475 8.20064 29.4221 6.89966C31.3692 5.59867 33.6583 4.90427 36 4.90427C38.3417 4.90427 40.6308 5.59867 42.5779 6.89966C44.525 8.20064 46.0425 10.0498 46.9387 12.2133C47.8348 14.3767 48.0693 16.7573 47.6124 19.0541C47.1556 21.3508 46.0279 23.4604 44.3721 25.1163L36 16.7442L27.6279 25.1163Z" fill="white"/>
<path d="M25.1163 44.3721C23.4604 46.0279 21.3508 47.1556 19.0541 47.6124C16.7573 48.0693 14.3767 47.8348 12.2133 46.9387C10.0498 46.0425 8.20065 44.525 6.89966 42.5779C5.59867 40.6308 4.90427 38.3417 4.90427 36C4.90427 33.6583 5.59867 31.3692 6.89966 29.4221C8.20064 27.475 10.0498 25.9575 12.2133 25.0613C14.3767 24.1652 16.7573 23.9307 19.0541 24.3876C21.3508 24.8444 23.4604 25.9721 25.1163 27.6279L16.7442 36L25.1163 44.3721Z" fill="white"/>
<path d="M33.4884 36C32.3889 37.0994 31.0837 37.9716 29.6472 38.5666C28.2107 39.1616 26.6711 39.4678 25.1163 39.4678C23.5614 39.4678 22.0218 39.1616 20.5853 38.5666C19.1489 37.9716 17.8436 37.0994 16.7442 36L25.1163 27.6279L33.4884 36Z" fill="white"/>
<path d="M38.5116 36C39.6111 34.9006 40.9163 34.0284 42.3528 33.4334C43.7893 32.8384 45.3289 32.5322 46.8837 32.5322C48.4386 32.5322 49.9782 32.8384 51.4147 33.4334C52.8511 34.0284 54.1564 34.9006 55.2558 36L46.8837 44.3721L38.5116 36Z" fill="white"/>
<path d="M44.3721 46.8837C46.0279 48.5395 47.1556 50.6492 47.6124 52.9459C48.0693 55.2427 47.8348 57.6233 46.9387 59.7867C46.0425 61.9502 44.525 63.7994 42.5779 65.1003C40.6308 66.4013 38.3417 67.0957 36 67.0957C33.6583 67.0957 31.3692 66.4013 29.4221 65.1003C27.475 63.7994 25.9575 61.9502 25.0613 59.7867C24.1652 57.6233 23.9307 55.2427 24.3876 52.9459C24.8444 50.6492 25.9721 48.5396 27.6279 46.8837L36 55.2558L44.3721 46.8837Z" fill="white"/>
<path d="M46.8837 27.6279C48.5396 25.9721 50.6492 24.8444 52.9459 24.3876C55.2427 23.9307 57.6233 24.1652 59.7867 25.0613C61.9502 25.9575 63.7994 27.475 65.1003 29.4221C66.4013 31.3692 67.0957 33.6583 67.0957 36C67.0957 38.3417 66.4013 40.6308 65.1003 42.5779C63.7994 44.525 61.9502 46.0425 59.7867 46.9387C57.6233 47.8348 55.2427 48.0693 52.9459 47.6124C50.6492 47.1556 48.5396 46.0279 46.8837 44.3721L55.2558 36L46.8837 27.6279Z" fill="white"/>
<path d="M92.1432 51.9327C90.1584 51.9327 88.3721 51.5925 86.7843 50.9123C85.1965 50.2036 83.949 49.2116 83.0416 47.9361C82.1343 46.6606 81.6807 45.1725 81.6807 43.4718H86.8694C86.9828 44.7473 87.479 45.7961 88.358 46.618C89.2653 47.44 90.527 47.851 92.1432 47.851C93.816 47.851 95.1203 47.4542 96.056 46.6606C96.9916 45.8386 97.4595 44.7898 97.4595 43.5143C97.4595 42.5222 97.1618 41.7144 96.5663 41.0908C95.9993 40.4673 95.2762 39.9854 94.3973 39.6453C93.5467 39.3051 92.3558 38.9367 90.8247 38.5398C88.8967 38.0296 87.323 37.5194 86.1038 37.0092C84.913 36.4707 83.8922 35.6487 83.0416 34.5432C82.191 33.4378 81.7657 31.9639 81.7657 30.1215C81.7657 28.4208 82.191 26.9327 83.0416 25.6572C83.8922 24.3817 85.0831 23.4038 86.6142 22.7235C88.1453 22.0433 89.9174 21.7031 91.9305 21.7031C94.7942 21.7031 97.1334 22.4259 98.948 23.8715C100.791 25.2887 101.812 27.2445 102.01 29.7388H96.6514C96.5663 28.6617 96.056 27.7405 95.1203 26.9752C94.1846 26.2099 92.9512 25.8273 91.4201 25.8273C90.0308 25.8273 88.8967 26.1816 88.0177 26.8902C87.1387 27.5988 86.6993 28.6192 86.6993 29.9514C86.6993 30.8584 86.9686 31.6096 87.5073 32.2048C88.0744 32.7717 88.7833 33.2252 89.6339 33.5653C90.4845 33.9055 91.647 34.274 93.1214 34.6708C95.0778 35.2093 96.6656 35.7479 97.8848 36.2864C99.1323 36.825 100.181 37.6611 101.032 38.7949C101.911 39.9004 102.35 41.3885 102.35 43.2592C102.35 44.7615 101.939 46.1787 101.117 47.5109C100.323 48.8431 99.1465 49.9202 97.5871 50.7422C96.056 51.5358 94.2413 51.9327 92.1432 51.9327Z" fill="white"/>
<path d="M129.549 39.3477C129.549 40.2263 129.493 41.02 129.379 41.7286H111.474C111.616 43.5993 112.31 45.1016 113.558 46.2354C114.805 47.3692 116.337 47.9361 118.151 47.9361V52.0177C115.911 52.0177 113.898 51.5217 112.112 50.5296C110.354 49.5092 108.965 48.092 107.944 46.2779C106.952 44.4355 106.455 42.3097 106.455 39.9004C106.455 37.4911 106.937 35.3794 107.901 33.5653C108.894 31.7229 110.269 30.3057 112.027 29.3137C113.813 28.3216 115.855 27.8256 118.151 27.8256C120.363 27.8256 122.333 28.3074 124.063 29.2711C125.793 30.2349 127.139 31.5954 128.103 33.3528C129.067 35.0818 129.549 37.0801 129.549 39.3477ZM124.488 37.817C124.46 36.0313 123.822 34.5999 122.574 33.5228C121.327 32.4457 119.782 31.9072 117.939 31.9072C116.266 31.9072 114.834 32.4457 113.643 33.5228C112.452 34.5716 111.743 36.003 111.516 37.817H124.488Z" fill="white"/>
<path d="M139.169 28.2082C139.169 31.2623 141.111 29.668 142.529 28.931C143.947 28.194 145.549 27.8256 147.335 27.8256C149.377 27.8256 151.234 28.3358 152.907 29.3562C154.608 30.3482 155.94 31.7513 156.904 33.5653C157.868 35.3794 158.351 37.4627 158.351 39.8153C158.351 42.1679 157.868 44.2796 156.904 46.1504C155.94 47.9928 154.608 49.4383 152.907 50.4871C151.234 51.5075 149.377 52.0177 147.335 52.0177C145.549 52.0177 143.961 51.6634 142.572 50.9548C141.182 50.2178 140.048 49.3108 139.169 48.2337V62.7745H134.321V28.2082H139.169ZM153.417 39.8153C153.417 38.1997 153.077 36.8108 152.396 35.6487C151.744 34.4582 150.865 33.5653 149.759 32.9701C148.682 32.3465 147.519 32.0347 146.272 32.0347C145.053 32.0347 143.89 32.3465 142.784 32.9701C141.707 33.5937 140.828 34.5007 140.147 35.6912C139.495 36.8817 139.169 38.2847 139.169 39.9004C139.169 41.516 139.495 42.9332 140.147 44.1521C140.828 45.3425 141.707 46.2496 142.784 46.8731C143.89 47.4967 145.053 47.8085 146.272 47.8085C147.519 47.8085 148.682 47.4967 149.759 46.8731C150.865 46.2212 151.744 45.2858 152.396 44.067C153.077 42.8482 153.417 41.431 153.417 39.8153Z" fill="white"/>
<path d="M172.587 27.8256C174.402 27.8256 176.004 28.194 177.393 28.931C178.811 29.6396 179.916 30.5325 180.71 31.6096V28.2082L185.601 31.6096V52.0177C185.601 54.1719 185.148 56.0851 184.24 57.7575C183.333 59.4582 182.015 60.7904 180.285 61.7541C178.584 62.7178 176.542 63.1996 174.161 63.1996C170.985 63.1996 168.348 62.4485 166.25 60.9462C164.152 59.4723 162.961 57.4599 162.677 54.9088H167.483C167.852 56.1277 168.632 57.1055 169.822 57.8425C171.042 58.6078 172.488 58.9905 174.161 58.9905C176.117 58.9905 177.691 58.3952 178.881 57.2048C180.101 56.0143 180.71 54.2853 180.71 52.0177V48.1061C179.888 49.2116 178.768 50.1469 177.35 50.9123C175.961 51.6492 174.373 52.0177 172.587 52.0177C170.545 52.0177 168.674 51.5075 166.973 50.4871C165.3 49.4383 163.967 47.9928 162.975 46.1504C162.011 44.2796 161.529 42.1679 161.529 39.8153C161.529 37.4627 162.011 35.3794 162.975 33.5653C163.967 31.7513 165.3 30.3482 166.973 29.3562C168.674 28.3358 170.545 27.8256 172.587 27.8256ZM180.71 39.9004C180.71 38.2847 180.37 36.8817 179.69 35.6912C179.037 34.5007 178.173 33.5937 177.095 32.9701C176.018 32.3465 174.855 32.0347 173.608 32.0347C172.36 32.0347 171.198 32.3465 170.12 32.9701C169.043 33.5653 168.164 34.4582 167.483 35.6487C166.831 36.8108 166.505 38.1997 166.505 39.8153C166.505 41.431 166.831 42.8482 167.483 44.067C168.164 45.2858 169.043 46.2212 170.12 46.8731C171.226 47.4967 172.388 47.8085 173.608 47.8085C174.855 47.8085 176.018 47.4967 177.095 46.8731C178.173 46.2496 179.037 45.3425 179.69 44.1521C180.37 42.9332 180.71 41.516 180.71 39.9004Z" fill="white"/>
<path d="M196.818 28.2082V51.635H191.97V28.2082H196.818Z" fill="white"/>
<path d="M208.84 32.1623V45.13C208.84 46.0086 209.039 46.6464 209.436 47.0432C209.861 47.4117 210.57 47.5959 211.562 47.5959H214.539V51.635H210.712C208.528 51.635 206.855 51.1248 205.693 50.1044C204.53 49.084 203.949 47.4259 203.949 45.13V32.1623H201.185V28.2082H203.949V22.0007H208.84V28.2082H214.539V32.1623H208.84Z" fill="white"/>
<path d="M192.225 24.2109C192.821 24.8061 193.558 25.1037 194.437 25.1037C195.287 25.1037 196.01 24.8061 196.606 24.2109C197.201 23.6156 197.499 22.8787 197.499 22H191.332C191.332 22.8787 191.63 23.6156 192.225 24.2109Z" fill="white"/>
</svg>
